<?xml version="1.0" encoding="utf-8"?>
<!-- Generator: Adobe Illustrator 24.2.0, SVG Export Plug-In . SVG Version: 6.00 Build 0)  -->
<svg version="1.1" id="Camada_1" xmlns="http://www.w3.org/2000/svg" xmlns:xlink="http://www.w3.org/1999/xlink" x="0px" y="0px"
	 viewBox="0 0 946.7 112.3" style="enable-background:new 0 0 946.7 112.3;" xml:space="preserve">
<style type="text/css">
	.st0{fill:#262626;}
	.st1{fill:#FFFFFF;}
</style>
<g id="Camada_2_1_">
	<g id="Camada_1-2">
		<rect y="17.6" class="st0" width="946.7" height="67.9"/>
		<rect y="60.2" class="st1" width="946.7" height="8.2"/>
		<g>
			<path class="st1" d="M42.9,29.8v15.6c0.1,1.2-0.3,2.4-1.1,3.3c-0.7,0.6-2.1,0.9-4,0.9h-1.6l-0.4-4.3h1.1c0.4,0,0.6,0,0.7-0.1
				s0.1-0.3,0.1-0.6V29.8H42.9z"/>
			<path class="st1" d="M44.9,41.7c0-2.8,0.5-4.7,1.6-6c1.3-1.3,3.1-2,5-1.9c2.3,0,3.9,0.6,4.9,1.8s1.5,3.2,1.5,6s-0.5,4.8-1.5,6
				c-1.3,1.4-3.1,2.1-4.9,1.9c-2.3,0-3.9-0.6-5-1.9S44.9,44.4,44.9,41.7z M52.5,38.7c-0.2-0.5-0.9-0.8-1.4-0.5c0,0,0,0-0.1,0
				c-0.2,0.1-0.4,0.3-0.5,0.5c-0.2,0.9-0.2,1.7-0.2,2.6v0.8c0,1,0,1.9,0.2,2.9c0.1,0.4,0.5,0.7,1,0.7c0.4,0.1,0.9-0.2,1-0.6
				c0,0,0-0.1,0-0.1c0.2-0.9,0.2-1.8,0.2-2.7v-0.9C52.7,40.5,52.7,39.5,52.5,38.7z"/>
			<path class="st1" d="M70.9,38.1l-0.2,6.5c0,0.4,0.1,0.7,0.3,0.8c0.3,0.1,0.7,0.2,1,0.2l-0.5,3.8c-1.2,0.1-1.9,0.1-2,0.1
				c-1.2,0.1-2.4-0.5-3-1.6h-0.2c-0.9,1.1-2.2,1.7-3.6,1.6c-1.1,0.1-2.1-0.4-2.8-1.2c-0.7-0.9-1.1-2.1-1-3.3
				c-0.2-1.4,0.5-2.8,1.6-3.6c1.6-0.8,3.3-1.3,5.1-1.3v-0.8c0.1-0.4-0.2-0.8-0.6-0.9c0,0,0,0-0.1,0h-0.2c-1.6,0.1-3.2,0.4-4.7,0.9
				l-0.8-4.6c2.2-0.6,4.4-0.9,6.7-1c1.8,0,3,0.3,3.7,1C70.5,35.5,71,36.8,70.9,38.1z M69.9,28.5v0.3c0.1,1-0.1,2.1-0.6,3
				c-0.4,0.7-1.1,1-2.3,1c-0.9,0-1.7-0.2-2.5-0.5L63.7,32v1.2h-3.4v-0.3c-0.1-1.1,0.1-2.1,0.6-3.1c0.4-0.7,1.3-1.1,2.1-1
				c1,0.1,1.9,0.3,2.8,0.6l0.6,0.2v-1L69.9,28.5L69.9,28.5z M64.8,45.8c0.5,0.1,1.1-0.2,1.2-0.8c0,0,0-0.1,0-0.1v-1.8
				c-0.6,0-1.1,0.2-1.6,0.5c-0.3,0.3-0.5,0.7-0.5,1.1C63.9,45.5,64.2,45.8,64.8,45.8z"/>
			<path class="st1" d="M73,41.7c0-2.8,0.5-4.7,1.6-6c1.3-1.3,3.1-2,5-1.9c2.2,0,3.9,0.6,4.9,1.8s1.5,3.2,1.5,6s-0.5,4.8-1.5,6
				c-1.3,1.4-3.1,2.1-4.9,1.9c-2.3,0-3.9-0.6-5-1.9S73,44.4,73,41.7z M80.5,38.7c-0.2-0.5-0.9-0.8-1.4-0.5c0,0,0,0-0.1,0
				c-0.2,0.1-0.4,0.3-0.5,0.5c-0.2,0.9-0.2,1.7-0.2,2.6v0.8c0,1,0,1.9,0.2,2.9c0.1,0.4,0.5,0.7,1,0.7c0.4,0.1,0.9-0.2,1-0.6
				c0,0,0-0.1,0-0.1c0.2-0.9,0.2-1.8,0.2-2.7v-0.9C80.8,40.5,80.7,39.5,80.5,38.7z"/>
			<path class="st1" d="M101.4,42.8H100v6.4h-5.3V29.8h6.4c1.8-0.1,3.6,0.4,5,1.5c1.1,1,1.6,2.7,1.6,5.1s-0.5,4-1.5,5
				C104.8,42.4,103.1,43,101.4,42.8z M102,38.6c0.2-0.6,0.3-1.3,0.3-1.9c0-0.6-0.1-1.3-0.3-1.9c-0.2-0.4-0.6-0.6-1.3-0.6h-0.8v5h0.9
				C101.3,39.1,101.7,38.9,102,38.6L102,38.6z"/>
			<path class="st1" d="M120.1,38.1l-0.2,6.5c0,0.4,0.1,0.7,0.3,0.8c0.3,0.1,0.7,0.2,1,0.2l-0.5,3.8c-1.2,0.1-1.9,0.1-2,0.1
				c-1.2,0.1-2.4-0.5-3-1.6h-0.2c-0.9,1.1-2.2,1.7-3.6,1.6c-1.1,0.1-2.1-0.4-2.8-1.2c-0.7-0.9-1.1-2.1-1-3.3
				c-0.2-1.4,0.5-2.8,1.6-3.6c1.6-0.8,3.3-1.3,5.1-1.3v-0.8c0.1-0.4-0.2-0.8-0.6-0.9c0,0,0,0-0.1,0h-0.2c-1.6,0.1-3.2,0.4-4.7,0.9
				l-0.8-4.6c2.2-0.6,4.4-0.9,6.7-1c1.8,0,3,0.3,3.7,1C119.7,35.5,120.2,36.8,120.1,38.1z M114.1,45.8c0.5,0.1,1.1-0.2,1.2-0.8
				c0,0,0-0.1,0-0.1v-1.8c-0.6,0-1.1,0.2-1.6,0.5c-0.3,0.3-0.5,0.7-0.5,1.1C113.1,45.5,113.4,45.8,114.1,45.8z"/>
			<path class="st1" d="M126.2,49.6c-2.5,0-3.7-1.4-3.7-4.1V34.2h5.3v9.9c0,0.5,0.2,0.8,0.7,0.8c0.5,0,1.1-0.1,1.5-0.4V34.2h5.3v15
				h-5v-1.1h-0.1C129.1,49,127.7,49.5,126.2,49.6z"/>
			<path class="st1" d="M137.1,45.8V29.1h5.2v15c-0.1,0.4,0.1,0.8,0.5,1h0.5l-0.4,4.5h-1.7c-1.1,0.1-2.2-0.2-3.1-0.9
				C137.4,47.9,137,46.8,137.1,45.8z"/>
			<path class="st1" d="M144.2,41.7c0-2.8,0.5-4.7,1.6-6c1.3-1.3,3.1-2,5-1.9c2.3,0,3.9,0.6,4.9,1.8s1.5,3.2,1.5,6s-0.5,4.8-1.5,6
				c-1.3,1.4-3.1,2.1-4.9,1.9c-2.3,0-3.9-0.6-5-1.9S144.2,44.4,144.2,41.7z M151.7,38.7c-0.2-0.5-0.9-0.8-1.4-0.5c0,0,0,0-0.1,0
				c-0.2,0.1-0.4,0.3-0.5,0.5c-0.2,0.9-0.2,1.7-0.2,2.6v0.8c0,1,0,1.9,0.2,2.9c0.1,0.4,0.5,0.7,1,0.7c0.4,0.1,0.9-0.2,1-0.6
				c0,0,0-0.1,0-0.1c0.2-0.9,0.2-1.8,0.2-2.7v-0.9C152,40.5,151.9,39.5,151.7,38.7z"/>
			<path class="st1" d="M178.7,49.4l-2.1,0.1c-1.6,0-2.6-0.5-3-1.6h-0.2c-0.7,1.1-1.9,1.7-3.2,1.6c-1.6,0.1-3.1-0.6-4-2
				c-0.8-1.3-1.1-3.3-1.1-5.9s0.4-4.6,1.3-5.9c0.8-1.3,2.2-2,3.7-2c0.9,0,1.9,0.2,2.6,0.8V29h5.2v15.5c0,0.4,0.1,0.7,0.3,0.8
				c0.3,0.1,0.6,0.2,0.9,0.2L178.7,49.4z M171.6,38.3c-0.5,0-0.7,0.3-0.9,0.8c-0.1,0.8-0.2,1.5-0.2,2.3v2c0,0.4,0.1,0.7,0.1,1.1
				s0.2,0.5,0.3,0.8c0.2,0.1,0.5,0.2,0.8,0.2c0.4,0,0.8-0.1,1.1-0.3v-6.5C172.5,38.3,172,38.2,171.6,38.3z"/>
			<path class="st1" d="M186.8,33.8c2.2,0,3.7,0.5,4.6,1.6c1,1.2,1.5,2.8,1.4,4.4c0,0.3-0.1,1.4-0.2,3.4h-7.2c0,1.6,0.7,2.4,2.2,2.4
				c1.4-0.1,2.7-0.3,4-0.7l0.4,3.9c-1.7,0.5-3.5,0.8-5.3,0.8c-1.9,0.1-3.7-0.7-5-2.1c-1.2-1.4-1.7-3.3-1.7-5.8
				C180.1,36.5,182.3,33.8,186.8,33.8z M186.7,38.3c-0.4,0-0.8,0.2-1.1,0.5c-0.2,0.5-0.3,1.1-0.3,1.7h2.7v-0.8
				c0.1-0.6-0.3-1.2-0.9-1.4C187,38.3,186.8,38.2,186.7,38.3z"/>
			<path class="st1" d="M211.2,49.3h-9.9V29.8h5.4v15.1h4.9L211.2,49.3z"/>
			<path class="st1" d="M212.7,33.2c-0.5-0.5-0.7-1.1-0.7-1.8c-0.1-0.7,0.2-1.4,0.7-1.9c1.4-0.8,3-0.8,4.4,0c0.9,1,0.9,2.6,0,3.6
				c-0.6,0.5-1.4,0.7-2.2,0.6C214.1,33.8,213.4,33.6,212.7,33.2z M217.5,49.3h-5.2V34.4h5.2V49.3z"/>
			<path class="st1" d="M232.2,35.3c1-0.9,2.4-1.5,3.8-1.5c1.1-0.1,2.1,0.2,2.9,1c0.6,0.8,0.9,1.9,0.8,2.9v11.6h-5.3v-9.8
				c0-0.5-0.2-0.8-0.7-0.8c-0.5,0-1.1,0.1-1.5,0.4v10.1h-5.3v-9.8c0-0.5-0.2-0.8-0.7-0.8c-0.5,0-1.1,0.1-1.5,0.4v10.1h-5.3V34.2h4.8
				l0.3,1.1h0.1c1.1-1,2.6-1.5,4.1-1.5c1.3-0.2,2.6,0.6,3.1,1.8L232.2,35.3z"/>
			<path class="st1" d="M253,38.1l-0.2,6.5c0,0.4,0.1,0.7,0.3,0.8c0.3,0.1,0.7,0.2,1,0.2l-0.5,3.8c-1.2,0.1-1.9,0.1-2,0.1
				c-1.2,0.1-2.4-0.5-3-1.6l0,0c-0.9,1.1-2.2,1.7-3.6,1.6c-1.1,0.1-2.1-0.4-2.8-1.2c-0.7-0.9-1.1-2.1-1-3.3
				c-0.2-1.4,0.5-2.8,1.6-3.6c1.6-0.8,3.3-1.3,5.1-1.3v-0.8c0.1-0.4-0.2-0.8-0.6-0.9c0,0,0,0-0.1,0H247c-1.6,0.1-3.2,0.4-4.7,0.9
				l-0.8-4.6c2.2-0.6,4.4-0.9,6.7-1c1.8,0,3,0.3,3.7,1C252.6,35.6,253,36.8,253,38.1z M246.9,45.8c0.5,0.1,1.1-0.2,1.2-0.8
				c0,0,0-0.1,0-0.1v-1.8c-0.6,0-1.1,0.2-1.6,0.5c-0.3,0.3-0.5,0.7-0.5,1.1c-0.1,0.5,0.1,1,0.6,1.1L246.9,45.8z"/>
		</g>
	</g>
</g>
</svg>
