<?xml version="1.0" encoding="utf-8"?>
<!-- Generator: Adobe Illustrator 24.2.0, SVG Export Plug-In . SVG Version: 6.00 Build 0)  -->
<svg version="1.1" id="Camada_1" xmlns="http://www.w3.org/2000/svg" xmlns:xlink="http://www.w3.org/1999/xlink" x="0px" y="0px"
	 viewBox="0 0 972 170" style="enable-background:new 0 0 972 170;" xml:space="preserve">
<style type="text/css">
	.st0{fill:#262626;}
	.st1{fill:#FFFFFF;}
	.st2{clip-path:url(#SVGID_2_);}
	.st3{enable-background:new    ;}
</style>
<g>
	<g id="Camada_2_1_">
		<g id="Camada_1-2">
			
				<image style="overflow:visible;opacity:0.54;enable-background:new    ;" width="972" height="93" xlink:href="77E98874.png"  transform="matrix(1 0 0 1 0 38)">
			</image>
			<rect x="8.5" y="45.5" class="st0" width="946.7" height="67.9"/>
			<rect x="8.5" y="88.1" class="st1" width="946.7" height="8.2"/>
			
				<image style="overflow:visible;opacity:0.54;enable-background:new    ;" width="170" height="170" xlink:href="77E98875.png"  transform="matrix(1 0 0 1 73 -6.728313e-06)">
			</image>
			<circle class="st0" cx="154.1" cy="80.2" r="72.8"/>
			<g>
				<defs>
					<circle id="SVGID_1_" cx="154.1" cy="80.2" r="72.8"/>
				</defs>
				<clipPath id="SVGID_2_">
					<use xlink:href="#SVGID_1_"  style="overflow:visible;"/>
				</clipPath>
				<g class="st2">
					
						<image style="overflow:visible;enable-background:new    ;" width="1600" height="1600" xlink:href="77E98874.jpeg"  transform="matrix(0.1 0 0 0.1 74.42 5.65)">
					</image>
				</g>
			</g>
			<g class="st3">
				<path class="st1" d="M706.3,57.6v15.6c0,1.6-0.4,2.7-1.1,3.3c-0.7,0.6-2.1,0.9-4,0.9h-1.6l-0.4-4.3h1.1c0.4,0,0.6,0,0.7-0.1
					c0.1-0.1,0.1-0.3,0.1-0.6V57.6H706.3z"/>
				<path class="st1" d="M708.3,69.5c0-2.8,0.5-4.7,1.6-6c1.1-1.2,2.7-1.9,5-1.9c2.3,0,3.9,0.6,4.9,1.8c1,1.2,1.5,3.2,1.5,6
					c0,2.8-0.5,4.8-1.5,6c-1,1.3-2.6,1.9-4.9,1.9s-3.9-0.6-5-1.9C708.9,74.2,708.3,72.2,708.3,69.5z M715.9,66.5
					c-0.1-0.4-0.5-0.6-1-0.6s-0.9,0.2-1,0.6s-0.2,1.3-0.2,2.6v0.8c0,1.5,0.1,2.4,0.2,2.9c0.1,0.4,0.5,0.7,1,0.7c0.5,0,0.9-0.2,1-0.7
					c0.1-0.4,0.2-1.3,0.2-2.7v-0.9C716.1,67.8,716,66.9,715.9,66.5z"/>
				<path class="st1" d="M734.3,65.9l-0.2,6.5c0,0.4,0.1,0.7,0.3,0.8c0.2,0.1,0.5,0.2,1,0.2l-0.5,3.8c-1.2,0.1-1.9,0.1-2,0.1
					c-1.5,0-2.5-0.5-3-1.6h-0.2c-0.8,1.1-2,1.6-3.6,1.6c-1.2,0-2.2-0.4-2.8-1.2c-0.7-0.8-1-1.9-1-3.3c0-1.7,0.5-2.9,1.6-3.6
					s2.8-1.1,5.1-1.3v-0.8c0-0.6-0.3-0.9-0.9-0.9c-1,0-2.6,0.3-4.7,0.9l-0.8-4.6c2.7-0.7,4.9-1,6.7-1c1.8,0,3,0.3,3.7,1
					C733.9,63.4,734.3,64.5,734.3,65.9z M733.3,56.3v0.3c0,1.3-0.2,2.4-0.6,3c-0.4,0.7-1.1,1-2.3,1c-0.8,0-1.6-0.2-2.5-0.5l-0.8-0.3
					V61h-3.4v-0.3c0-1.4,0.2-2.4,0.6-3.1c0.4-0.7,1.1-1,2.1-1c0.3,0,1.3,0.2,2.8,0.6l0.6,0.2v-1H733.3z M728.2,73.7
					c0.8,0,1.2-0.4,1.2-1.2v-1.5c-0.8,0.1-1.3,0.3-1.6,0.5c-0.3,0.2-0.5,0.6-0.5,1.1C727.3,73.3,727.6,73.7,728.2,73.7z"/>
				<path class="st1" d="M736.4,69.5c0-2.8,0.5-4.7,1.6-6c1.1-1.2,2.7-1.9,5-1.9c2.2,0,3.9,0.6,4.9,1.8s1.5,3.2,1.5,6
					c0,2.8-0.5,4.8-1.5,6c-1,1.3-2.6,1.9-4.9,1.9c-2.3,0-3.9-0.6-5-1.9C736.9,74.2,736.4,72.2,736.4,69.5z M743.9,66.5
					c-0.1-0.4-0.5-0.6-1-0.6c-0.5,0-0.9,0.2-1,0.6s-0.2,1.3-0.2,2.6v0.8c0,1.5,0.1,2.4,0.2,2.9c0.1,0.4,0.5,0.7,1,0.7
					c0.5,0,0.9-0.2,1-0.7c0.1-0.4,0.2-1.3,0.2-2.7v-0.9C744.1,67.8,744.1,66.9,743.9,66.5z"/>
				<path class="st1" d="M764.8,70.7h-1.4v6.4h-5.3V57.6h6.4c2.2,0,3.9,0.5,5,1.5s1.6,2.7,1.6,5.1s-0.5,4-1.5,5
					S766.9,70.7,764.8,70.7z M765.4,66.5c0.2-0.4,0.3-1,0.3-1.9s-0.1-1.6-0.3-1.9c-0.2-0.4-0.6-0.6-1.3-0.6h-0.8v5h0.9
					C764.8,67,765.2,66.8,765.4,66.5z"/>
				<path class="st1" d="M783.5,65.9l-0.2,6.5c0,0.4,0.1,0.7,0.3,0.8c0.2,0.1,0.5,0.2,1,0.2l-0.5,3.8c-1.2,0.1-1.9,0.1-2,0.1
					c-1.5,0-2.5-0.5-3-1.6h-0.2c-0.8,1.1-2,1.6-3.6,1.6c-1.2,0-2.2-0.4-2.8-1.2c-0.7-0.8-1-1.9-1-3.3c0-1.7,0.5-2.9,1.6-3.6
					c1.1-0.7,2.8-1.1,5.1-1.3v-0.8c0-0.6-0.3-0.9-0.9-0.9c-1,0-2.6,0.3-4.7,0.9l-0.8-4.6c2.7-0.7,4.9-1,6.7-1s3,0.3,3.7,1
					C783.2,63.4,783.5,64.5,783.5,65.9z M777.5,73.7c0.8,0,1.2-0.4,1.2-1.2v-1.5c-0.8,0.1-1.3,0.3-1.6,0.5s-0.5,0.6-0.5,1.1
					C776.5,73.3,776.8,73.7,777.5,73.7z"/>
				<path class="st1" d="M789.6,77.4c-2.5,0-3.7-1.4-3.7-4.1V62h5.3v9.9c0,0.5,0.2,0.8,0.7,0.8c0.6,0,1.1-0.1,1.5-0.4V62h5.3v15h-5
					v-1.1h-0.1C792.4,76.9,791.1,77.4,789.6,77.4z"/>
				<path class="st1" d="M800.5,73.6V56.9h5.2v15c0,0.4,0.1,0.6,0.2,0.8c0.2,0.1,0.4,0.2,0.8,0.2l-0.4,4.5h-1.7
					c-1.4,0-2.4-0.3-3.1-0.9C800.9,75.9,800.5,75,800.5,73.6z"/>
				<path class="st1" d="M807.6,69.5c0-2.8,0.5-4.7,1.6-6c1.1-1.2,2.7-1.9,5-1.9c2.3,0,3.9,0.6,4.9,1.8c1,1.2,1.5,3.2,1.5,6
					c0,2.8-0.5,4.8-1.5,6c-1,1.3-2.6,1.9-4.9,1.9s-3.9-0.6-5-1.9C808.1,74.2,807.6,72.2,807.6,69.5z M815.1,66.5
					c-0.1-0.4-0.5-0.6-1-0.6s-0.9,0.2-1,0.6s-0.2,1.3-0.2,2.6v0.8c0,1.5,0.1,2.4,0.2,2.9c0.1,0.4,0.5,0.7,1,0.7c0.5,0,0.9-0.2,1-0.7
					c0.1-0.4,0.2-1.3,0.2-2.7v-0.9C815.3,67.8,815.3,66.9,815.1,66.5z"/>
				<path class="st1" d="M842.1,77.2l-2.1,0.1c-1.6,0-2.6-0.5-3-1.6h-0.2c-0.7,1.1-1.7,1.6-3.2,1.6c-1.9,0-3.2-0.7-4-2
					c-0.8-1.3-1.1-3.3-1.1-5.9c0-2.6,0.4-4.6,1.3-5.9c0.9-1.3,2.1-2,3.7-2c1.1,0,2,0.3,2.6,0.8v-5.5h5.2v15.5c0,0.4,0.1,0.7,0.3,0.8
					c0.2,0.1,0.5,0.2,0.9,0.2L842.1,77.2z M835,66.1c-0.5,0-0.7,0.3-0.9,0.8c-0.1,0.5-0.2,1.3-0.2,2.3s0,1.7,0,2
					c0,0.4,0.1,0.7,0.1,1.1c0.1,0.4,0.2,0.6,0.3,0.8c0.2,0.1,0.4,0.2,0.8,0.2c0.4,0,0.7-0.1,1.1-0.3v-6.5
					C835.9,66.2,835.5,66.1,835,66.1z"/>
				<path class="st1" d="M850.2,61.6c2.2,0,3.7,0.5,4.6,1.6c0.9,1,1.4,2.5,1.4,4.4c0,0.3-0.1,1.4-0.2,3.4h-7.2
					c0,1.6,0.7,2.4,2.2,2.4c0.7,0,2-0.2,4-0.7l0.4,3.9c-1.8,0.5-3.5,0.8-5.3,0.8c-2.2,0-3.8-0.7-5-2.1c-1.2-1.4-1.7-3.3-1.7-5.8
					C843.5,64.3,845.7,61.6,850.2,61.6z M850.1,66.1c-0.5,0-0.9,0.2-1.1,0.5c-0.2,0.4-0.3,0.9-0.3,1.7h2.7v-0.8
					C851.5,66.6,851,66.1,850.1,66.1z"/>
				<path class="st1" d="M874.6,77.1h-9.9V57.6h5.4v15.1h4.9L874.6,77.1z"/>
				<path class="st1" d="M876.1,61c-0.4-0.4-0.7-1-0.7-1.8c0-0.8,0.2-1.5,0.7-1.9s1.2-0.6,2.2-0.6c1,0,1.7,0.2,2.2,0.6
					s0.7,1,0.7,1.8c0,0.8-0.2,1.4-0.7,1.8c-0.4,0.4-1.2,0.6-2.2,0.6C877.3,61.6,876.6,61.4,876.1,61z M880.9,77.1h-5.2V62.2h5.2
					V77.1z"/>
				<path class="st1" d="M895.6,63.1c1.2-1,2.4-1.5,3.8-1.5s2.3,0.3,2.9,1c0.6,0.6,0.8,1.6,0.8,2.9v11.6h-5.3v-9.8
					c0-0.5-0.2-0.8-0.7-0.8c-0.6,0-1.1,0.1-1.5,0.4v10.1h-5.3v-9.8c0-0.5-0.2-0.8-0.7-0.8c-0.6,0-1.1,0.1-1.5,0.4v10.1h-5.3V62h4.8
					l0.3,1.1h0.1c1.2-1,2.5-1.5,4.1-1.5s2.6,0.6,3.1,1.8L895.6,63.1z"/>
				<path class="st1" d="M916.4,65.9l-0.2,6.5c0,0.4,0.1,0.7,0.3,0.8c0.2,0.1,0.5,0.2,1,0.2l-0.5,3.8c-1.2,0.1-1.9,0.1-2,0.1
					c-1.5,0-2.5-0.5-3-1.6H912c-0.8,1.1-2,1.6-3.6,1.6c-1.2,0-2.2-0.4-2.8-1.2c-0.7-0.8-1-1.9-1-3.3c0-1.7,0.5-2.9,1.6-3.6
					c1.1-0.7,2.8-1.1,5.1-1.3v-0.8c0-0.6-0.3-0.9-0.9-0.9c-1,0-2.6,0.3-4.7,0.9l-0.8-4.6c2.7-0.7,4.9-1,6.7-1s3,0.3,3.7,1
					C916,63.4,916.4,64.5,916.4,65.9z M910.3,73.7c0.8,0,1.2-0.4,1.2-1.2v-1.5c-0.8,0.1-1.3,0.3-1.6,0.5s-0.5,0.6-0.5,1.1
					C909.3,73.3,909.7,73.7,910.3,73.7z"/>
			</g>
		</g>
	</g>
</g>
</svg>
