<?xml version="1.0" encoding="utf-8"?>
<!-- Generator: Adobe Illustrator 24.2.0, SVG Export Plug-In . SVG Version: 6.00 Build 0)  -->
<svg version="1.1" id="Camada_1" xmlns="http://www.w3.org/2000/svg" xmlns:xlink="http://www.w3.org/1999/xlink" x="0px" y="0px"
	 viewBox="0 0 972 160.3" style="enable-background:new 0 0 972 160.3;" xml:space="preserve">
<style type="text/css">
	.st0{fill:#262626;}
	.st1{fill:#FFFFFF;}
</style>
<rect x="8.5" y="41.1" class="st0" width="946.7" height="67.9"/>
<rect x="8.5" y="83.7" class="st1" width="946.7" height="8.2"/>
<path class="st1" d="M706.3,53.2v15.6c0.1,1.2-0.3,2.4-1.1,3.3c-0.7,0.6-2.1,0.9-4,0.9h-1.6l-0.4-4.3h1.1c0.4,0,0.6,0,0.7-0.1
	s0.1-0.3,0.1-0.6V53.2H706.3z"/>
<path class="st1" d="M708.3,65.1c0-2.8,0.5-4.7,1.6-6c1.3-1.3,3.1-2,5-1.9c2.3,0,3.9,0.6,4.9,1.8s1.5,3.2,1.5,6c0,2.8-0.5,4.8-1.5,6
	s-2.6,1.9-4.9,1.9s-3.9-0.6-5-1.9S708.3,67.8,708.3,65.1z M715.9,62.1c-0.3-0.6-1-0.8-1.5-0.5c-0.2,0.1-0.4,0.3-0.5,0.5
	c-0.2,0.9-0.2,1.7-0.2,2.6v0.8c0,1,0,1.9,0.2,2.9c0.1,0.4,0.5,0.7,1,0.7c0.5,0.1,0.9-0.2,1-0.7c0.2-0.9,0.2-1.8,0.2-2.7v-0.9
	C716.1,63.9,716.1,63,715.9,62.1L715.9,62.1z"/>
<path class="st1" d="M734.3,61.5l-0.2,6.5c0,0.4,0.1,0.7,0.3,0.8c0.3,0.1,0.7,0.2,1,0.2l-0.5,3.8c-1.2,0.1-1.9,0.1-2,0.1
	c-1.2,0.2-2.4-0.5-3-1.6h-0.2c-0.9,1.1-2.2,1.7-3.6,1.6c-1.1,0.1-2.1-0.4-2.8-1.2c-0.7-0.9-1.1-2.1-1-3.3c-0.2-1.4,0.5-2.8,1.6-3.6
	c1.6-0.8,3.3-1.3,5.1-1.3v-0.8c0.1-0.4-0.2-0.8-0.7-0.9c-0.1,0-0.1,0-0.2,0c-1.6,0.1-3.2,0.4-4.7,0.9l-0.8-4.6
	c2.2-0.6,4.4-0.9,6.7-1c1.8,0,3,0.3,3.7,1C733.9,59,734.4,60.2,734.3,61.5z M733.3,51.9v0.3c0.1,1-0.1,2.1-0.6,3
	c-0.4,0.7-1.1,1-2.3,1c-0.9,0-1.7-0.2-2.5-0.5l-0.8-0.3v1.2h-3.4v-0.3c-0.1-1.1,0.1-2.1,0.6-3.1c0.4-0.7,1.3-1.1,2.1-1
	c0.9,0.1,1.9,0.3,2.8,0.6l0.6,0.2v-1L733.3,51.9L733.3,51.9L733.3,51.9z M728.2,69.3c0.6,0.1,1.1-0.3,1.2-0.9c0-0.1,0-0.2,0-0.3
	v-1.5c-0.6,0-1.1,0.2-1.6,0.5c-0.3,0.3-0.5,0.7-0.5,1.1C727.3,68.9,727.6,69.3,728.2,69.3z"/>
<path class="st1" d="M736.4,65.1c0-2.8,0.5-4.7,1.6-6c1.3-1.3,3.1-2,5-1.9c2.2,0,3.9,0.6,4.9,1.8s1.5,3.2,1.5,6c0,2.8-0.5,4.8-1.5,6
	s-2.6,1.9-4.9,1.9s-3.9-0.6-5-1.9S736.4,67.8,736.4,65.1z M743.9,62.1c-0.3-0.6-1-0.8-1.5-0.5c-0.2,0.1-0.4,0.3-0.5,0.5
	c-0.2,0.9-0.2,1.7-0.2,2.6v0.8c0,1,0,1.9,0.2,2.9c0.1,0.4,0.5,0.7,1,0.7c0.5,0.1,0.9-0.2,1-0.7c0.2-0.9,0.2-1.8,0.2-2.7v-0.9
	C744.2,63.9,744.1,63,743.9,62.1z"/>
<path class="st1" d="M764.8,66.3h-1.4v6.4h-5.3V53.2h6.4c1.8-0.1,3.6,0.4,5,1.5c1.1,1,1.6,2.7,1.6,5.1s-0.5,4-1.5,5
	C768.3,65.9,766.5,66.4,764.8,66.3z M765.4,62.1c0.2-0.6,0.3-1.3,0.3-1.9c0.1-0.6-0.1-1.3-0.3-1.9c-0.2-0.4-0.6-0.6-1.3-0.6h-0.8v5
	h0.9C764.7,62.6,765.1,62.4,765.4,62.1L765.4,62.1z"/>
<path class="st1" d="M783.5,61.5l-0.2,6.5c0,0.4,0.1,0.7,0.3,0.8c0.3,0.1,0.7,0.2,1,0.2l-0.5,3.8c-1.2,0.1-1.9,0.1-2,0.1
	c-1.2,0.2-2.4-0.5-3-1.6h-0.2c-0.9,1.1-2.2,1.7-3.6,1.6c-1.1,0.1-2.1-0.4-2.8-1.2c-0.7-0.9-1.1-2.1-1-3.3c-0.2-1.4,0.5-2.8,1.6-3.6
	c1.6-0.8,3.3-1.3,5.1-1.3v-0.8c0.1-0.4-0.2-0.8-0.7-0.9c-0.1,0-0.1,0-0.2,0c-1.6,0.1-3.2,0.4-4.7,0.9l-0.8-4.6
	c2.2-0.6,4.4-0.9,6.7-1c1.8,0,3,0.3,3.7,1C783.1,58.9,783.6,60.2,783.5,61.5z M777.5,69.3c0.6,0.1,1.1-0.3,1.2-0.9
	c0-0.1,0-0.2,0-0.3v-1.5c-0.6,0-1.1,0.2-1.6,0.5c-0.3,0.3-0.5,0.7-0.5,1.1C776.5,68.9,776.8,69.3,777.5,69.3z"/>
<path class="st1" d="M789.6,73c-2.5,0-3.7-1.4-3.7-4.1V57.6h5.3v9.9c0,0.5,0.2,0.8,0.7,0.8c0.5,0,1.1-0.1,1.5-0.4V57.6h5.3v15h-5
	v-1.1h-0.1C792.5,72.4,791.1,73,789.6,73z"/>
<path class="st1" d="M800.5,69.2V52.5h5.2v15c-0.1,0.4,0.1,0.9,0.5,1c0.2,0,0.3,0,0.5,0l-0.4,4.5h-1.7c-1.1,0.1-2.2-0.2-3.1-0.9
	C800.8,71.3,800.4,70.2,800.5,69.2z"/>
<path class="st1" d="M807.6,65.1c0-2.8,0.5-4.7,1.6-6c1.3-1.3,3.1-2,5-1.9c2.3,0,3.9,0.6,4.9,1.8s1.5,3.2,1.5,6c0,2.8-0.5,4.8-1.5,6
	s-2.6,1.9-4.9,1.9s-3.9-0.6-5-1.9S807.6,67.8,807.6,65.1z M815.1,62.1c-0.3-0.6-1-0.8-1.5-0.5c-0.2,0.1-0.4,0.3-0.5,0.5
	c-0.2,0.9-0.2,1.7-0.2,2.6v0.8c0,1,0,1.9,0.2,2.9c0.1,0.4,0.5,0.7,1,0.7c0.5,0.1,0.9-0.2,1-0.7c0.2-0.9,0.2-1.8,0.2-2.7v-0.9
	C815.4,63.9,815.3,63,815.1,62.1z"/>
<path class="st1" d="M842.1,72.8l-2.1,0.1c-1.6,0-2.6-0.5-3-1.6h-0.2c-0.7,1.1-1.9,1.7-3.2,1.6c-1.6,0.1-3.1-0.6-4-2
	c-0.8-1.3-1.1-3.3-1.1-5.9s0.4-4.6,1.3-5.9c0.8-1.3,2.2-2,3.7-2c0.9,0,1.9,0.2,2.6,0.8v-5.5h5.2v15.5c0,0.4,0.1,0.7,0.3,0.8
	c0.3,0.1,0.6,0.2,0.9,0.2L842.1,72.8z M835,61.7c-0.5,0-0.7,0.3-0.9,0.8c-0.1,0.8-0.2,1.5-0.2,2.3v2c0,0.4,0.1,0.7,0.1,1.1
	c0.1,0.3,0.2,0.5,0.3,0.8c0.2,0.1,0.5,0.2,0.8,0.2c0.4,0,0.8-0.1,1.1-0.3v-6.5C835.9,61.8,835.4,61.6,835,61.7z"/>
<path class="st1" d="M850.2,57.2c2.2,0,3.7,0.5,4.6,1.6c1,1.2,1.5,2.8,1.4,4.4c0,0.3-0.1,1.4-0.2,3.4h-7.2c0,1.6,0.7,2.4,2.2,2.4
	c1.4-0.1,2.7-0.3,4-0.7l0.4,3.9c-1.7,0.5-3.5,0.8-5.3,0.8c-1.9,0.1-3.7-0.7-5-2.1c-1.2-1.4-1.7-3.3-1.7-5.8
	C843.5,59.9,845.7,57.2,850.2,57.2z M850.1,61.7c-0.4,0-0.8,0.2-1.1,0.5c-0.2,0.5-0.3,1.1-0.3,1.7h2.7v-0.8c0.1-0.6-0.3-1.2-0.9-1.4
	C850.4,61.7,850.2,61.6,850.1,61.7L850.1,61.7z"/>
<path class="st1" d="M874.6,72.7h-9.9V53.2h5.4v15.1h4.9L874.6,72.7z"/>
<path class="st1" d="M876.1,56.6c-0.5-0.5-0.7-1.1-0.7-1.8c-0.1-0.7,0.2-1.4,0.7-1.9c1.4-0.8,3-0.8,4.4,0c0.9,1,0.9,2.6,0,3.6
	c-0.6,0.5-1.4,0.7-2.2,0.6C877.5,57.2,876.7,57,876.1,56.6z M880.9,72.7h-5.2V57.8h5.2V72.7z"/>
<path class="st1" d="M895.6,58.7c1-0.9,2.4-1.5,3.8-1.5c1.1-0.1,2.1,0.2,2.9,1c0.6,0.8,0.9,1.9,0.8,2.9v11.6h-5.3v-9.8
	c0-0.5-0.2-0.8-0.7-0.8c-0.5,0-1.1,0.1-1.5,0.4v10.1h-5.3v-9.8c0-0.5-0.2-0.8-0.7-0.8c-0.5,0-1.1,0.1-1.5,0.4v10.1h-5.3V57.6h4.8
	l0.3,1.1h0.1c1.1-1,2.6-1.5,4.1-1.5c1.3-0.2,2.6,0.6,3.1,1.8L895.6,58.7z"/>
<path class="st1" d="M916.4,61.5l-0.2,6.5c0,0.4,0.1,0.7,0.3,0.8c0.3,0.1,0.7,0.2,1,0.2l-0.5,3.8c-1.2,0.1-1.9,0.1-2,0.1
	c-1.2,0.2-2.4-0.5-3-1.6l0,0c-0.9,1.1-2.2,1.7-3.6,1.6c-1.1,0.1-2.1-0.4-2.8-1.2c-0.7-0.9-1.1-2.1-1-3.3c-0.2-1.4,0.5-2.8,1.6-3.6
	c1.6-0.8,3.3-1.3,5.1-1.3v-0.8c0.1-0.4-0.2-0.8-0.7-0.9c-0.1,0-0.1,0-0.2,0c-1.6,0.1-3.2,0.4-4.7,0.9l-0.8-4.6
	c2.2-0.6,4.4-0.9,6.7-1c1.8,0,3,0.3,3.7,1C916,59,916.4,60.2,916.4,61.5z M910.3,69.3c0.6,0.1,1.1-0.3,1.2-0.9c0-0.1,0-0.2,0-0.3
	v-1.5c-0.6,0-1.1,0.2-1.6,0.5c-0.3,0.3-0.5,0.7-0.5,1.1c-0.1,0.5,0.1,0.9,0.6,1.1C910.1,69.3,910.2,69.3,910.3,69.3L910.3,69.3z"/>
<g>
	<defs>
		<circle id="SVGID_1_" cx="142" cy="75" r="65.1"/>
	</defs>
	<clipPath id="SVGID_2_">
		<use xlink:href="#SVGID_1_"  style="overflow:visible;"/>
	</clipPath>
	<g transform="matrix(1 0 0 1 0 0)" style="clip-path:url(#SVGID_2_);">
		
			<image style="overflow:visible;" width="1600" height="1600" xlink:href="cartoonJP.jpeg"  transform="matrix(8.497778e-02 0 0 8.497778e-02 71.4605 7.6487)">
		</image>
	</g>
</g>
</svg>
