<svg xmlns="http://www.w3.org/2000/svg" xmlns:xlink="http://www.w3.org/1999/xlink" viewBox="0 0 972 160.32"><defs><style>.cls-1{fill:none;}.cls-2{opacity:0.54;}.cls-2,.cls-6{isolation:isolate;}.cls-3{fill:#262626;}.cls-4{fill:#fff;}.cls-5{clip-path:url(#clip-path);}</style><clipPath id="clip-path" transform="translate(0 2.97)"><circle class="cls-1" cx="154.1" cy="72.8" r="72.8"/></clipPath></defs><g id="Camada_2" data-name="Camada 2"><g id="Camada_1-2" data-name="Camada 1"><image class="cls-2" width="972" height="93" transform="translate(0 33.57)" xlink:href="77E98874.png"/><rect class="cls-3" x="8.5" y="41.07" width="946.7" height="67.9"/><rect class="cls-4" x="8.5" y="83.67" width="946.7" height="8.2"/><path class="cls-4" d="M706.3,50.2V65.8a4.21,4.21,0,0,1-1.1,3.3c-.7.6-2.1.9-4,.9h-1.6l-.4-4.3h1.1c.4,0,.6,0,.7-.1s.1-.3.1-.6V50.2Z" transform="translate(0 2.97)"/><path class="cls-4" d="M708.3,62.1c0-2.8.5-4.7,1.6-6a6.4,6.4,0,0,1,5-1.9c2.3,0,3.9.6,4.9,1.8s1.5,3.2,1.5,6-.5,4.8-1.5,6-2.6,1.9-4.9,1.9-3.9-.6-5-1.9S708.3,64.8,708.3,62.1Zm7.6-3a1.13,1.13,0,0,0-2,0,12.59,12.59,0,0,0-.2,2.6v.8a15.65,15.65,0,0,0,.2,2.9,1,1,0,0,0,1,.7.9.9,0,0,0,1-.7,13.05,13.05,0,0,0,.2-2.7v-.9A13.05,13.05,0,0,0,715.9,59.1Z" transform="translate(0 2.97)"/><path class="cls-4" d="M734.3,58.5l-.2,6.5c0,.4.1.7.3.8a2.15,2.15,0,0,0,1,.2l-.5,3.8c-1.2.1-1.9.1-2,.1a2.93,2.93,0,0,1-3-1.6h-.2a4.13,4.13,0,0,1-3.6,1.6,3.36,3.36,0,0,1-2.8-1.2,4.83,4.83,0,0,1-1-3.3,3.91,3.91,0,0,1,1.6-3.6,11.72,11.72,0,0,1,5.1-1.3v-.8a.8.8,0,0,0-.9-.9,19.34,19.34,0,0,0-4.7.9l-.8-4.6a27.12,27.12,0,0,1,6.7-1c1.8,0,3,.3,3.7,1A4.52,4.52,0,0,1,734.3,58.5Zm-1-9.6v.3a5.87,5.87,0,0,1-.6,3c-.4.7-1.1,1-2.3,1a7.93,7.93,0,0,1-2.5-.5l-.8-.3v1.2h-3.4v-.3a6.29,6.29,0,0,1,.6-3.1,2.18,2.18,0,0,1,2.1-1,17.48,17.48,0,0,1,2.8.6l.6.2V49h3.5v-.1Zm-5.1,17.4a1.06,1.06,0,0,0,1.2-1.2V63.6a3.73,3.73,0,0,0-1.6.5,1.29,1.29,0,0,0-.5,1.1C727.3,65.9,727.6,66.3,728.2,66.3Z" transform="translate(0 2.97)"/><path class="cls-4" d="M736.4,62.1c0-2.8.5-4.7,1.6-6a6.4,6.4,0,0,1,5-1.9c2.2,0,3.9.6,4.9,1.8s1.5,3.2,1.5,6-.5,4.8-1.5,6-2.6,1.9-4.9,1.9-3.9-.6-5-1.9S736.4,64.8,736.4,62.1Zm7.5-3a1.13,1.13,0,0,0-2,0,12.59,12.59,0,0,0-.2,2.6v.8a15.65,15.65,0,0,0,.2,2.9,1,1,0,0,0,1,.7.9.9,0,0,0,1-.7,13.05,13.05,0,0,0,.2-2.7v-.9A8.34,8.34,0,0,0,743.9,59.1Z" transform="translate(0 2.97)"/><path class="cls-4" d="M764.8,63.3h-1.4v6.4h-5.3V50.2h6.4a7.29,7.29,0,0,1,5,1.5c1.1,1,1.6,2.7,1.6,5.1s-.5,4-1.5,5A6.74,6.74,0,0,1,764.8,63.3Zm.6-4.2a4.39,4.39,0,0,0,.3-1.9,4.09,4.09,0,0,0-.3-1.9c-.2-.4-.6-.6-1.3-.6h-.8v5h.9A1.71,1.71,0,0,0,765.4,59.1Z" transform="translate(0 2.97)"/><path class="cls-4" d="M783.5,58.5l-.2,6.5c0,.4.1.7.3.8a2.15,2.15,0,0,0,1,.2l-.5,3.8c-1.2.1-1.9.1-2,.1a2.93,2.93,0,0,1-3-1.6h-.2a4.13,4.13,0,0,1-3.6,1.6,3.36,3.36,0,0,1-2.8-1.2,4.83,4.83,0,0,1-1-3.3,3.91,3.91,0,0,1,1.6-3.6,11.72,11.72,0,0,1,5.1-1.3v-.8a.8.8,0,0,0-.9-.9,19.34,19.34,0,0,0-4.7.9l-.8-4.6a27.12,27.12,0,0,1,6.7-1c1.8,0,3,.3,3.7,1A4.18,4.18,0,0,1,783.5,58.5Zm-6,7.8a1.06,1.06,0,0,0,1.2-1.2V63.6a3.73,3.73,0,0,0-1.6.5,1.29,1.29,0,0,0-.5,1.1C776.5,65.9,776.8,66.3,777.5,66.3Z" transform="translate(0 2.97)"/><path class="cls-4" d="M789.6,70c-2.5,0-3.7-1.4-3.7-4.1V54.6h5.3v9.9c0,.5.2.8.7.8a2.41,2.41,0,0,0,1.5-.4V54.6h5.3v15h-5V68.5h-.1A6,6,0,0,1,789.6,70Z" transform="translate(0 2.97)"/><path class="cls-4" d="M800.5,66.2V49.5h5.2v15a.8.8,0,0,0,1,1l-.4,4.5h-1.7a4.59,4.59,0,0,1-3.1-.9A3.88,3.88,0,0,1,800.5,66.2Z" transform="translate(0 2.97)"/><path class="cls-4" d="M807.6,62.1c0-2.8.5-4.7,1.6-6a6.4,6.4,0,0,1,5-1.9c2.3,0,3.9.6,4.9,1.8s1.5,3.2,1.5,6-.5,4.8-1.5,6-2.6,1.9-4.9,1.9-3.9-.6-5-1.9S807.6,64.8,807.6,62.1Zm7.5-3a1.13,1.13,0,0,0-2,0,12.59,12.59,0,0,0-.2,2.6v.8a15.65,15.65,0,0,0,.2,2.9,1,1,0,0,0,1,.7.9.9,0,0,0,1-.7,13.05,13.05,0,0,0,.2-2.7v-.9A8.34,8.34,0,0,0,815.1,59.1Z" transform="translate(0 2.97)"/><path class="cls-4" d="M842.1,69.8l-2.1.1c-1.6,0-2.6-.5-3-1.6h-.2a3.43,3.43,0,0,1-3.2,1.6,4.32,4.32,0,0,1-4-2c-.8-1.3-1.1-3.3-1.1-5.9s.4-4.6,1.3-5.9a4.27,4.27,0,0,1,3.7-2,4,4,0,0,1,2.6.8V49.4h5.2V64.9c0,.4.1.7.3.8a2,2,0,0,0,.9.2ZM835,58.7c-.5,0-.7.3-.9.8a12.14,12.14,0,0,0-.2,2.3v2c0,.4.1.7.1,1.1a3.39,3.39,0,0,0,.3.8,1.55,1.55,0,0,0,.8.2,2.28,2.28,0,0,0,1.1-.3V59.1A1.59,1.59,0,0,0,835,58.7Z" transform="translate(0 2.97)"/><path class="cls-4" d="M850.2,54.2c2.2,0,3.7.5,4.6,1.6a6.45,6.45,0,0,1,1.4,4.4c0,.3-.1,1.4-.2,3.4h-7.2c0,1.6.7,2.4,2.2,2.4a19.23,19.23,0,0,0,4-.7l.4,3.9a19.46,19.46,0,0,1-5.3.8,6.14,6.14,0,0,1-5-2.1c-1.2-1.4-1.7-3.3-1.7-5.8C843.5,56.9,845.7,54.2,850.2,54.2Zm-.1,4.5a1.29,1.29,0,0,0-1.1.5,3.69,3.69,0,0,0-.3,1.7h2.7v-.8A1.16,1.16,0,0,0,850.1,58.7Z" transform="translate(0 2.97)"/><path class="cls-4" d="M874.6,69.7h-9.9V50.2h5.4V65.3H875Z" transform="translate(0 2.97)"/><path class="cls-4" d="M876.1,53.6a2.48,2.48,0,0,1-.7-1.8,2.35,2.35,0,0,1,.7-1.9,4.33,4.33,0,0,1,4.4,0,2.66,2.66,0,0,1,0,3.6,3.22,3.22,0,0,1-2.2.6A2.91,2.91,0,0,1,876.1,53.6Zm4.8,16.1h-5.2V54.8h5.2Z" transform="translate(0 2.97)"/><path class="cls-4" d="M895.6,55.7a5.73,5.73,0,0,1,3.8-1.5,3.52,3.52,0,0,1,2.9,1,4,4,0,0,1,.8,2.9V69.7h-5.3V59.9c0-.5-.2-.8-.7-.8a2.41,2.41,0,0,0-1.5.4V69.6h-5.3V59.8c0-.5-.2-.8-.7-.8a2.41,2.41,0,0,0-1.5.4V69.5h-5.3V54.6h4.8l.3,1.1h.1a6.1,6.1,0,0,1,4.1-1.5,3,3,0,0,1,3.1,1.8Z" transform="translate(0 2.97)"/><path class="cls-4" d="M916.4,58.5l-.2,6.5c0,.4.1.7.3.8a2.15,2.15,0,0,0,1,.2l-.5,3.8c-1.2.1-1.9.1-2,.1a2.93,2.93,0,0,1-3-1.6h0a4.13,4.13,0,0,1-3.6,1.6,3.36,3.36,0,0,1-2.8-1.2,4.83,4.83,0,0,1-1-3.3,3.91,3.91,0,0,1,1.6-3.6,11.72,11.72,0,0,1,5.1-1.3v-.8a.8.8,0,0,0-.9-.9,19.34,19.34,0,0,0-4.7.9l-.8-4.6a27.12,27.12,0,0,1,6.7-1c1.8,0,3,.3,3.7,1A5.33,5.33,0,0,1,916.4,58.5Zm-6.1,7.8a1.06,1.06,0,0,0,1.2-1.2V63.6a3.73,3.73,0,0,0-1.6.5,1.29,1.29,0,0,0-.5,1.1A.87.87,0,0,0,910.3,66.3Z" transform="translate(0 2.97)"/><g class="cls-5"><image class="cls-6" width="1600" height="1600" transform="translate(66) scale(0.11 0.1)" xlink:href="77E98874.jpeg"/></g></g></g></svg>