<svg xmlns="http://www.w3.org/2000/svg" xmlns:xlink="http://www.w3.org/1999/xlink" viewBox="0 0 946.7 135.96"><defs><style>.cls-1{fill:none;}.cls-2{fill:#262626;}.cls-3{fill:#fff;}.cls-4{clip-path:url(#clip-path);}.cls-5{isolation:isolate;}</style><clipPath id="clip-path" transform="translate(0 2.25)"><circle class="cls-1" cx="133.5" cy="65.1" r="65.1"/></clipPath></defs><g id="Camada_2" data-name="Camada 2"><g id="Camada_1-2" data-name="Camada 1"><rect class="cls-2" y="33.45" width="946.7" height="67.9"/><rect class="cls-3" y="76.05" width="946.7" height="8.2"/><path class="cls-3" d="M697.8,43.3V58.9a4.43,4.43,0,0,1-1.1,3.3c-.7.6-2.1.9-4,.9h-1.6l-.4-4.3h1.1c.4,0,.6,0,.7-.1s.1-.3.1-.6V43.3Z" transform="translate(0 2.25)"/><path class="cls-3" d="M699.8,55.2c0-2.8.5-4.7,1.6-6a6.55,6.55,0,0,1,5-1.9c2.3,0,3.9.6,4.9,1.8s1.5,3.2,1.5,6-.5,4.8-1.5,6a6,6,0,0,1-4.9,1.9c-2.3,0-3.9-.6-5-1.9S699.8,57.9,699.8,55.2Zm7.6-3a1.08,1.08,0,0,0-1.5-.5,1.21,1.21,0,0,0-.5.5,11.4,11.4,0,0,0-.2,2.6v.8a14.15,14.15,0,0,0,.2,2.9,1,1,0,0,0,1,.7.82.82,0,0,0,1-.7,12.29,12.29,0,0,0,.2-2.7v-.9a12.29,12.29,0,0,0-.2-2.7Z" transform="translate(0 2.25)"/><path class="cls-3" d="M725.8,51.6l-.2,6.5c0,.4.1.7.3.8a3.55,3.55,0,0,0,1,.2l-.5,3.8c-1.2.1-1.9.1-2,.1a3,3,0,0,1-3-1.6h-.2a4.22,4.22,0,0,1-3.6,1.6,3.33,3.33,0,0,1-2.8-1.2,4.81,4.81,0,0,1-1-3.3,3.88,3.88,0,0,1,1.6-3.6,11.35,11.35,0,0,1,5.1-1.3v-.8a.78.78,0,0,0-.7-.9h-.2a18.62,18.62,0,0,0-4.7.9l-.8-4.6a30.13,30.13,0,0,1,6.7-1c1.8,0,3,.3,3.7,1A4.3,4.3,0,0,1,725.8,51.6Zm-1-9.6v.3a5.25,5.25,0,0,1-.6,3c-.4.7-1.1,1-2.3,1a7,7,0,0,1-2.5-.5l-.8-.3v1.2h-3.4v-.3a5.58,5.58,0,0,1,.6-3.1,2.18,2.18,0,0,1,2.1-1,14,14,0,0,1,2.8.6l.6.2v-1l3.5-.1Zm-5.1,17.4a1,1,0,0,0,1.2-.9V56.7a3,3,0,0,0-1.6.5,1.61,1.61,0,0,0-.5,1.1C718.8,59,719.1,59.4,719.7,59.4Z" transform="translate(0 2.25)"/><path class="cls-3" d="M727.9,55.2c0-2.8.5-4.7,1.6-6a6.55,6.55,0,0,1,5-1.9c2.2,0,3.9.6,4.9,1.8s1.5,3.2,1.5,6-.5,4.8-1.5,6a6,6,0,0,1-4.9,1.9c-2.3,0-3.9-.6-5-1.9S727.9,57.9,727.9,55.2Zm7.5-3a1.08,1.08,0,0,0-1.5-.5,1.21,1.21,0,0,0-.5.5,11.4,11.4,0,0,0-.2,2.6v.8a14.15,14.15,0,0,0,.2,2.9,1,1,0,0,0,1,.7.82.82,0,0,0,1-.7,12.29,12.29,0,0,0,.2-2.7v-.9A8.22,8.22,0,0,0,735.4,52.2Z" transform="translate(0 2.25)"/><path class="cls-3" d="M756.3,56.4h-1.4v6.4h-5.3V43.3H756a7.42,7.42,0,0,1,5,1.5c1.1,1,1.6,2.7,1.6,5.1s-.5,4-1.5,5A6.9,6.9,0,0,1,756.3,56.4Zm.6-4.2a6.28,6.28,0,0,0,.3-1.9,4.22,4.22,0,0,0-.3-1.9c-.2-.4-.6-.6-1.3-.6h-.8v5h.9a2.28,2.28,0,0,0,1.2-.6Z" transform="translate(0 2.25)"/><path class="cls-3" d="M775,51.6l-.2,6.5c0,.4.1.7.3.8a3.55,3.55,0,0,0,1,.2l-.5,3.8c-1.2.1-1.9.1-2,.1a3,3,0,0,1-3-1.6h-.2a4.22,4.22,0,0,1-3.6,1.6,3.33,3.33,0,0,1-2.8-1.2,4.81,4.81,0,0,1-1-3.3,3.88,3.88,0,0,1,1.6-3.6,11.35,11.35,0,0,1,5.1-1.3v-.8a.78.78,0,0,0-.7-.9h-.2a18.62,18.62,0,0,0-4.7.9l-.8-4.6a30.13,30.13,0,0,1,6.7-1c1.8,0,3,.3,3.7,1A4.18,4.18,0,0,1,775,51.6Zm-6,7.8a1,1,0,0,0,1.2-.9V56.7a3,3,0,0,0-1.6.5,1.61,1.61,0,0,0-.5,1.1C768,59,768.3,59.4,769,59.4Z" transform="translate(0 2.25)"/><path class="cls-3" d="M781.1,63.1c-2.5,0-3.7-1.4-3.7-4.1V47.7h5.3v9.9c0,.5.2.8.7.8a2.6,2.6,0,0,0,1.5-.4V47.7h5.3v15h-5V61.6h-.1A6.37,6.37,0,0,1,781.1,63.1Z" transform="translate(0 2.25)"/><path class="cls-3" d="M792,59.3V42.6h5.2v15a.83.83,0,0,0,.5,1h.5l-.4,4.5h-1.7a4.37,4.37,0,0,1-3.1-.9A4,4,0,0,1,792,59.3Z" transform="translate(0 2.25)"/><path class="cls-3" d="M799.1,55.2c0-2.8.5-4.7,1.6-6a6.55,6.55,0,0,1,5-1.9c2.3,0,3.9.6,4.9,1.8s1.5,3.2,1.5,6-.5,4.8-1.5,6a6,6,0,0,1-4.9,1.9c-2.3,0-3.9-.6-5-1.9S799.1,57.9,799.1,55.2Zm7.5-3a1.08,1.08,0,0,0-1.5-.5,1.21,1.21,0,0,0-.5.5,11.4,11.4,0,0,0-.2,2.6v.8a14.15,14.15,0,0,0,.2,2.9,1,1,0,0,0,1,.7.82.82,0,0,0,1-.7,12.29,12.29,0,0,0,.2-2.7v-.9A8.22,8.22,0,0,0,806.6,52.2Z" transform="translate(0 2.25)"/><path class="cls-3" d="M833.6,62.9l-2.1.1c-1.6,0-2.6-.5-3-1.6h-.2a3.43,3.43,0,0,1-3.2,1.6,4.34,4.34,0,0,1-4-2c-.8-1.3-1.1-3.3-1.1-5.9s.4-4.6,1.3-5.9a4.27,4.27,0,0,1,3.7-2,4,4,0,0,1,2.6.8V42.5h5.2V58c0,.4.1.7.3.8a2.92,2.92,0,0,0,.9.2Zm-7.1-11.1c-.5,0-.7.3-.9.8a17.85,17.85,0,0,0-.2,2.3v2c0,.4.1.7.1,1.1s.2.5.3.8a1.88,1.88,0,0,0,.8.2,2,2,0,0,0,1.1-.3V52.2A1.37,1.37,0,0,0,826.5,51.8Z" transform="translate(0 2.25)"/><path class="cls-3" d="M841.7,47.3c2.2,0,3.7.5,4.6,1.6a6.3,6.3,0,0,1,1.4,4.4c0,.3-.1,1.4-.2,3.4h-7.2c0,1.6.7,2.4,2.2,2.4a17.63,17.63,0,0,0,4-.7l.4,3.9a18.9,18.9,0,0,1-5.3.8,6.37,6.37,0,0,1-5-2.1c-1.2-1.4-1.7-3.3-1.7-5.8C835,50,837.2,47.3,841.7,47.3Zm-.1,4.5a1.61,1.61,0,0,0-1.1.5,4.67,4.67,0,0,0-.3,1.7h2.7v-.8a1.3,1.3,0,0,0-.9-1.4c-.1,0-.3-.1-.4,0Z" transform="translate(0 2.25)"/><path class="cls-3" d="M866.1,62.8h-9.9V43.3h5.4V58.4h4.9Z" transform="translate(0 2.25)"/><path class="cls-3" d="M867.6,46.7a2.41,2.41,0,0,1-.7-1.8,2.28,2.28,0,0,1,.7-1.9,4.33,4.33,0,0,1,4.4,0,2.74,2.74,0,0,1,0,3.6,2.86,2.86,0,0,1-2.2.6A3.29,3.29,0,0,1,867.6,46.7Zm4.8,16.1h-5.2V47.9h5.2Z" transform="translate(0 2.25)"/><path class="cls-3" d="M887.1,48.8a5.84,5.84,0,0,1,3.8-1.5,3.48,3.48,0,0,1,2.9,1,4.28,4.28,0,0,1,.8,2.9V62.8h-5.3V53c0-.5-.2-.8-.7-.8a2.6,2.6,0,0,0-1.5.4V62.7h-5.3V52.9c0-.5-.2-.8-.7-.8a2.6,2.6,0,0,0-1.5.4V62.6h-5.3V47.7h4.8l.3,1.1h.1a6.1,6.1,0,0,1,4.1-1.5,3,3,0,0,1,3.1,1.8Z" transform="translate(0 2.25)"/><path class="cls-3" d="M907.9,51.6l-.2,6.5c0,.4.1.7.3.8a3.55,3.55,0,0,0,1,.2l-.5,3.8c-1.2.1-1.9.1-2,.1a3,3,0,0,1-3-1.6h0a4.22,4.22,0,0,1-3.6,1.6,3.33,3.33,0,0,1-2.8-1.2,4.81,4.81,0,0,1-1-3.3,3.88,3.88,0,0,1,1.6-3.6,11.35,11.35,0,0,1,5.1-1.3v-.8a.78.78,0,0,0-.7-.9h-.2a18.62,18.62,0,0,0-4.7.9l-.8-4.6a30.13,30.13,0,0,1,6.7-1c1.8,0,3,.3,3.7,1A5.54,5.54,0,0,1,907.9,51.6Zm-6.1,7.8a1,1,0,0,0,1.2-.9V56.7a3,3,0,0,0-1.6.5,1.61,1.61,0,0,0-.5,1.1.91.91,0,0,0,.6,1.1Z" transform="translate(0 2.25)"/><g class="cls-4"><image class="cls-5" width="1600" height="1600" transform="translate(62.96) scale(0.08)" xlink:href="cartoonJP.jpeg"/></g></g></g></svg>